<svg height="32" viewBox="0 0 32 32" width="32" xmlns="http://www.w3.org/2000/svg" color="#83D7CF">
  <g fill="none" fill-rule="evenodd">
    <path d="m3.52534215 0h17.44931575c1.2258382 0 1.6703568.12763522 2.1185049.36730747.4481482.23967225.7998575.59138154 1.0395297 1.03952969.2396723.44814815.3673075.89266672.3673075 2.11850499v14.97465785h-24.5v-14.97465785c0-1.22583827.12763522-1.67035684.36730747-2.11850499s.59138154-.79985744 1.03952969-1.03952969.89266672-.36730747 2.11850499-.36730747z" fill="currentColor" transform="translate(3.75 4.75)"/>
    <g transform="translate(1.75 2.75)">
      <path d="m22.2 20.5 2.0081018 5.7528324c.1365069.3910738-.0698604.8187625-.4609342.9552694-.3584843.1251313-.7477353-.0378469-.9152661-.3671053l-.0400033-.0938289-2.1818982-6.2471676zm-14.312 0-2.17989819 6.2471676c-.12513133.3584844-.49493624.5617639-.85692785.4880093l-.09834157-.0270751c-.35848435-.1251313-.56176387-.4949362-.48800924-.8569278l.02707504-.0983416 2.00810181-5.7528324zm7.0247306-20.85270034.0453712.10553273.7838982 2.24716761-2.985-.001.7848982-2.24616761c.2210214-.63319634 1.0790342-.66837392 1.3708324-.10553273z" fill="#000"/>
      <g stroke="#000" stroke-linejoin="round" stroke-width="1.5">
        <path d="m6.25 24h16"/>
        <path d="m0 20.5h28.5" stroke-linecap="round"/>
        <path d="m5.52534215 2h17.44931575c1.2258382 0 1.6703568.12763522 2.1185049.36730747.4481482.23967225.7998575.59138154 1.0395297 1.03952969.2396723.44814815.3673075.89266672.3673075 2.11850499v14.97465785h-24.5v-14.97465785c0-1.22583827.12763522-1.67035684.36730747-2.11850499s.59138154-.79985744 1.03952969-1.03952969.89266672-.36730747 2.11850499-.36730747z"/>
        <g opacity=".25">
          <path d="m2.25 15h24"/>
          <path d="m21.5 2.25v18"/>
          <path d="m2.25 7.5h24"/>
          <path d="m7 2.25v18"/>
        </g>
      </g>
    </g>
  </g>
</svg>