<svg width="32" height="32" xmlns="http://www.w3.org/2000/svg"><g fill="none" fill-rule="evenodd"><path d="M15.47 3.75h1.06c2.76 0 4.74.48 6.43 1.38a9.4 9.4 0 0 1 3.9 3.91c.91 1.7 1.39 3.67 1.39 6.43v1.06c0 2.76-.48 4.74-1.38 6.43a9.4 9.4 0 0 1-3.91 3.9c-1.7.91-3.67 1.39-6.43 1.39h-1.06c-2.76 0-4.74-.48-6.43-1.38a9.4 9.4 0 0 1-3.9-3.91c-.91-1.7-1.39-3.67-1.39-6.43v-1.06c0-2.76.48-4.74 1.38-6.43a9.4 9.4 0 0 1 3.91-3.9c1.7-.91 3.67-1.39 6.43-1.39Z" fill="#BBD975"/><g stroke="#000" stroke-width="1.5"><path d="M13.5 9h-.75c-1.24 0-2.25 1-2.25 2.25v1.31a2 2 0 0 1-.72 1.54l-1.36 1.13a1 1 0 0 0 0 1.54l1.36 1.13a2 2 0 0 1 .72 1.54v1.31c0 1.24 1 2.25 2.25 2.25h.75M18.5 9h.75c1.24 0 2.25 1 2.25 2.25v1.31a2 2 0 0 0 .72 1.54l1.36 1.13a1 1 0 0 1 0 1.54l-1.36 1.13a2 2 0 0 0-.72 1.54v1.31c0 1.24-1 2.25-2.25 2.25h-.75 0" stroke-linecap="round" stroke-linejoin="round"/><path d="M15.47 3.75h1.06c2.76 0 4.74.48 6.43 1.38a9.4 9.4 0 0 1 3.9 3.91c.91 1.7 1.39 3.67 1.39 6.43v1.06c0 2.76-.48 4.74-1.38 6.43a9.4 9.4 0 0 1-3.91 3.9c-1.7.91-3.67 1.39-6.43 1.39h-1.06c-2.76 0-4.74-.48-6.43-1.38a9.4 9.4 0 0 1-3.9-3.91c-.91-1.7-1.39-3.67-1.39-6.43v-1.06c0-2.76.48-4.74 1.38-6.43a9.4 9.4 0 0 1 3.91-3.9c1.7-.91 3.67-1.39 6.43-1.39Z"/></g></g></svg>
