<svg width="32" height="32" viewBox="-109 68 32 32" xmlns="http://www.w3.org/2000/svg"><defs><clipPath id="prefix__a"><path d="M7 0c.703 0 1.273.582 1.273 1.3v5.2c0 1.077.855 1.95 1.909 1.95h5.09c.704 0 1.273.582 1.273 1.3v10.4c0 1.077-.854 1.95-1.909 1.95H1.91C.806 22.1 0 21.253 0 20.15V1.95C0 .873.855 0 1.91 0z"/></clipPath></defs><g clip-path="url(#prefix__a)" transform="translate(-98.545 71)"><path fill="#C690D1" d="M0 0h16.545v22.1H0V0z"/></g><path d="M-103 95.05c0 1.103.806 1.95 1.91 1.95h12.726c1.055 0 1.91-.873 1.91-1.95V93.1h-10.182c-1.055 0-1.91-.873-1.91-1.95V74.9h-2.545c-1.054 0-1.909.873-1.909 1.95v18.2z" stroke="#000" stroke-width="1.5" fill="none" stroke-miterlimit="10"/><path d="M-98.545 91.15c0 1.103.806 1.95 1.909 1.95h12.727c1.054 0 1.909-.873 1.909-1.95v-10.4c0-.718-.57-1.3-1.273-1.3h-5.09c-1.055 0-1.91-.873-1.91-1.95v-5.2c0-.718-.57-1.3-1.272-1.3h-5.091c-1.055 0-1.91.873-1.91 1.95v18.2z" stroke="#000" stroke-width="1.5" fill="none" stroke-miterlimit="10"/><path d="M-82 83.675v-3.164a2.6 2.6 0 00-.742-1.819l-6.766-6.91A2.6 2.6 0 00-91.366 71h-2.407 0" stroke="#000" stroke-width="1.5" fill="none" stroke-miterlimit="10"/></svg>