<svg width="32" height="32" xmlns="http://www.w3.org/2000/svg"><g fill="none" fill-rule="evenodd"><path d="M16.878 12.75h8.244c1.783 0 2.43.186 3.082.534.652.349 1.163.86 1.512 1.512.348.652.534 1.299.534 3.082v5.244c0 1.783-.186 2.43-.534 3.082a3.635 3.635 0 0 1-1.512 1.512c-.652.348-1.299.534-3.082.534h-8.244c-1.783 0-2.43-.186-3.082-.534a3.635 3.635 0 0 1-1.512-1.512c-.348-.652-.534-1.299-.534-3.082v-5.244c0-1.783.186-2.43.534-3.082a3.635 3.635 0 0 1 1.512-1.512c.652-.348 1.299-.534 3.082-.534Z" fill="#FAD266"/><g stroke="#000" stroke-linejoin="round" stroke-width="1.5"><path d="M9.25 27.25h-1.5a2 2 0 0 1-2-2V23h0m2 1.25-2-2-2 2M22.75 4.75h1.5a2 2 0 0 1 2 2V9h0m-2-1.25 2 2 2-2" stroke-linecap="round"/><path d="M15.122 3.75c1.783 0 2.43.186 3.082.534.652.349 1.163.86 1.512 1.512.348.652.534 1.299.534 3.082v3.872h-3.372c-1.69 0-2.359.167-2.979.48l-.103.054a3.635 3.635 0 0 0-1.512 1.512c-.348.652-.534 1.299-.534 3.082v1.372H6.878c-1.783 0-2.43-.186-3.082-.534a3.635 3.635 0 0 1-1.512-1.512c-.348-.652-.534-1.299-.534-3.082V8.878c0-1.783.186-2.43.534-3.082a3.635 3.635 0 0 1 1.512-1.512c.652-.348 1.299-.534 3.082-.534h8.244Z"/><path d="M16.878 12.75h8.244c1.783 0 2.43.186 3.082.534.652.349 1.163.86 1.512 1.512.348.652.534 1.299.534 3.082v5.244c0 1.783-.186 2.43-.534 3.082a3.635 3.635 0 0 1-1.512 1.512c-.652.348-1.299.534-3.082.534h-8.244c-1.783 0-2.43-.186-3.082-.534a3.635 3.635 0 0 1-1.512-1.512c-.348-.652-.534-1.299-.534-3.082v-5.244c0-1.783.186-2.43.534-3.082a3.635 3.635 0 0 1 1.512-1.512c.652-.348 1.299-.534 3.082-.534Z"/></g></g></svg>