<svg width="32" height="32" xmlns="http://www.w3.org/2000/svg"><g fill="none" fill-rule="evenodd"><path d="M14.25 5.75a2 2 0 012 2V22a5.75 5.75 0 01-11.5 0V7.75c0-1.1.9-2 2-2h7.5zm-3.75 15a1.75 1.75 0 100 3.5 1.75 1.75 0 000-3.5z" fill="#F9BB97"/><g stroke="#000" stroke-width="1.5"><path d="M22.67 10.33c.18.15.34.33.46.55l3.75 6.5a2 2 0 01-.73 2.72l-12.72 7.35.1-.06.25-.16"/><path d="M14.96 5.88c.23.04.45.12.67.24l6.5 3.75a2 2 0 01.72 2.73l-7.32 12.7"/><path d="M14.25 5.75a2 2 0 012 2V22.5a5.75 5.75 0 01-11.5 0V7.75c0-1.1.9-2 2-2h7.5zm-3.75 15a1.75 1.75 0 100 3.5 1.75 1.75 0 000-3.5z"/></g></g></svg>